<svg width="53" height="53" viewBox="0 0 53 53" fill="none" xmlns="http://www.w3.org/2000/svg">
<path d="M31.2472 22.2075L29.4948 21.8451C29.6552 21.0692 29.6943 19.834 29.7286 18.7441C29.7423 18.307 29.7557 17.8851 29.7757 17.5056C29.9816 13.5955 28.9425 11.0298 27.9014 9.93265C27.5851 9.59916 27.0842 9.20174 26.4938 9.20174C25.9416 9.20174 25.4211 9.45397 24.9467 9.95158C23.6788 11.2812 23.0466 14.0361 23.2121 17.5101C23.2284 17.8522 23.2403 18.2308 23.2527 18.6249C23.2884 19.7598 23.3289 21.046 23.4931 21.8465L21.7401 22.2062C21.5451 21.2555 21.502 19.8878 21.4641 18.6811C21.452 18.2972 21.4405 17.9284 21.4246 17.5952C21.2333 13.5766 22.0242 10.4234 23.6516 8.71668C24.4652 7.8633 25.448 7.41229 26.4938 7.41229C27.4641 7.41229 28.3998 7.85791 29.1996 8.70095C30.8794 10.4715 31.7628 13.7981 31.5628 17.5997C31.5434 17.9675 31.5305 18.3768 31.5172 18.8007C31.4788 20.0197 31.439 21.2803 31.2472 22.2075L31.2472 22.2075Z" fill="black"/>
<path d="M8.46669 32.5629L7.59978 27.7951L22.2097 20.3347L23.0235 21.9285L9.59836 28.7839L9.92443 30.5775L23.4004 28.8928L23.6223 30.6686L8.46669 32.5629Z" fill="black"/>
<path d="M44.5333 32.5716L29.3649 30.6684L29.5877 28.8929L43.0756 30.5853L43.4016 28.7922L29.9765 21.9367L30.7903 20.343L45.4002 27.8033L44.5333 32.5716Z" fill="black"/>
<path d="M36.9324 45.5877H16.0552V40.8223L22.2782 38.1553L21.7239 29.8402L23.5093 29.7211L24.148 39.3008L17.8447 42.0022V43.7983H35.1429V42.0389L28.5189 39.6302L29.4805 29.6945L31.2615 29.8669L30.4336 38.4224L36.9324 40.7856V45.5877Z" fill="black"/>
</svg>
