<svg width="40" height="40" viewBox="0 0 40 40" fill="none" xmlns="http://www.w3.org/2000/svg">
<path d="M13.0532 18.7821C11.6409 18.7821 10.4918 17.633 10.4918 16.2206C10.4918 14.8083 11.6409 13.6592 13.0532 13.6592C14.4656 13.6592 15.6147 14.8083 15.6147 16.2206C15.6147 17.633 14.4656 18.7821 13.0532 18.7821ZM13.0532 15.0097C12.3855 15.0097 11.8424 15.5529 11.8424 16.2206C11.8424 16.8883 12.3855 17.4315 13.0532 17.4315C13.7209 17.4315 14.2642 16.8883 14.2642 16.2206C14.2642 15.5529 13.7209 15.0097 13.0532 15.0097Z" fill="black"/>
<path d="M25.9156 18.7831C24.5033 18.7831 23.3542 17.634 23.3542 16.2217C23.3542 14.8093 24.5033 13.6602 25.9156 13.6602C27.3281 13.6602 28.4772 14.8093 28.4772 16.2217C28.4772 17.6341 27.3281 18.7831 25.9156 18.7831ZM25.9156 15.0108C25.248 15.0108 24.7048 15.554 24.7048 16.2217C24.7048 16.8894 25.248 17.4326 25.9156 17.4326C26.5833 17.4326 27.1266 16.8894 27.1266 16.2217C27.1266 15.554 26.5833 15.0108 25.9156 15.0108Z" fill="black"/>
<path d="M20.3164 6.52019L18.9658 6.52356L19.034 33.7975L20.3845 33.7941L20.3164 6.52019Z" fill="black"/>
<path d="M26.0679 10.5559C25.0286 10.5559 23.9892 10.5527 23.2096 10.5464C22.817 10.5432 22.49 10.5393 22.2609 10.5346C21.9052 10.5271 21.243 10.5134 21.243 9.84291C21.243 8.16329 23.3624 6.8476 26.0679 6.8476C28.7734 6.8476 30.8928 8.16331 30.8928 9.84291C30.8928 10.5134 30.2306 10.5271 29.875 10.5346C29.6459 10.5393 29.3189 10.5432 28.9263 10.5464C28.1467 10.5527 27.1073 10.5559 26.0679 10.5559ZM22.9175 9.19422C24.492 9.21005 27.6443 9.21005 29.2184 9.19422C28.6766 8.65051 27.5032 8.19812 26.0679 8.19812C24.6326 8.19812 23.4592 8.65051 22.9175 9.19422Z" fill="black"/>
<path d="M26.0679 6.20251V7.52284" stroke="black" stroke-width="1.01506" stroke-miterlimit="10"/>
<path d="M28.8029 10.611C28.8549 10.611 28.8972 10.4421 28.8972 10.2338C28.8972 10.0255 28.8549 9.85657 28.8029 9.85657C28.7508 9.85657 28.7086 10.0255 28.7086 10.2338C28.7086 10.4421 28.7508 10.611 28.8029 10.611Z" fill="black"/>
<path d="M28.8028 11.2863C28.6743 11.2863 28.0332 11.2355 28.0332 10.2338C28.0332 9.23211 28.6743 9.18134 28.8028 9.18134C28.9313 9.18134 29.5725 9.23211 29.5725 10.2338C29.5725 11.2355 28.9313 11.2863 28.8028 11.2863ZM28.2596 10.2338C28.3433 10.3696 28.531 10.5319 28.8028 10.5319C29.0746 10.5319 29.2623 10.3696 29.3459 10.2338C29.2623 10.0981 29.0746 9.93575 28.8028 9.93575C28.531 9.93575 28.3433 10.0981 28.2596 10.2338Z" fill="black"/>
<path d="M26.9167 12.2659C26.9688 12.2659 27.011 12.1393 27.011 11.983C27.011 11.8267 26.9688 11.7001 26.9167 11.7001C26.8646 11.7001 26.8224 11.8267 26.8224 11.983C26.8224 12.1393 26.8646 12.2659 26.9167 12.2659Z" fill="black"/>
<path d="M26.9167 12.9412C26.5336 12.9412 26.1471 12.6449 26.1471 11.983C26.1471 11.3212 26.5336 11.0248 26.9167 11.0248C27.2997 11.0248 27.6862 11.3212 27.6862 11.983C27.6862 12.6449 27.2997 12.9412 26.9167 12.9412ZM26.338 11.983C26.3687 12.1079 26.5646 12.3754 26.9167 12.3754C27.2687 12.3754 27.4647 12.1079 27.4953 11.983C27.4646 11.8582 27.2687 11.5907 26.9167 11.5907C26.5646 11.5907 26.3688 11.8582 26.338 11.983Z" fill="black"/>
<path d="M23.4292 12.4024C23.4813 12.4024 23.5235 12.2757 23.5235 12.1194C23.5235 11.9632 23.4813 11.8365 23.4292 11.8365C23.3771 11.8365 23.3349 11.9632 23.3349 12.1194C23.3349 12.2757 23.3771 12.4024 23.4292 12.4024Z" fill="black"/>
<path d="M23.4292 13.0775C23.0462 13.0775 22.6596 12.7812 22.6596 12.1194C22.6596 11.4575 23.0462 11.1612 23.4292 11.1612C23.8123 11.1612 24.1989 11.4575 24.1989 12.1194C24.1989 12.7812 23.8123 13.0775 23.4292 13.0775ZM22.8506 12.1194C22.8812 12.2441 23.077 12.5117 23.4292 12.5117C23.7813 12.5117 23.9773 12.2441 24.0078 12.1194C23.9773 11.9946 23.7813 11.727 23.4292 11.727C23.077 11.727 22.8812 11.9946 22.8506 12.1194Z" fill="black"/>
<path d="M25.2191 10.611C25.2712 10.611 25.3134 10.4421 25.3134 10.2338C25.3134 10.0255 25.2712 9.85657 25.2191 9.85657C25.167 9.85657 25.1248 10.0255 25.1248 10.2338C25.1248 10.4421 25.167 10.611 25.2191 10.611Z" fill="black"/>
<path d="M25.2192 11.2863C25.0907 11.2863 24.4496 11.2355 24.4496 10.2338C24.4496 9.23211 25.0907 9.18134 25.2192 9.18134C25.3476 9.18134 25.9887 9.23211 25.9887 10.2338C25.9887 11.2355 25.3476 11.2863 25.2192 11.2863ZM24.676 10.2338C24.7598 10.3697 24.9474 10.5319 25.2192 10.5319C25.491 10.5319 25.6786 10.3697 25.7623 10.2338C25.6786 10.098 25.491 9.93575 25.2192 9.93575C24.9474 9.93575 24.7598 10.098 24.676 10.2338Z" fill="black"/>
<path d="M15.8599 33.7959H14.5094V28.4263C14.5094 27.9904 14.7852 27.6054 15.1959 27.468C15.8599 27.2461 15.8599 26.798 15.8599 26.6508V20.9657H10.4577V26.5929C10.4577 26.7533 10.4577 27.2414 11.1278 27.4691C11.5349 27.6075 11.8083 27.9914 11.8083 28.4243V33.7959H10.4577V28.6558C9.60714 28.2773 9.10718 27.5221 9.10718 26.5929V20.8962C9.10718 20.1898 9.68189 19.6151 10.3883 19.6151H15.9294C16.6358 19.6151 17.2105 20.1898 17.2105 20.8962V26.6508C17.2105 27.5521 16.7106 28.2872 15.8599 28.6584V33.7959L15.8599 33.7959Z" fill="black"/>
<path d="M28.6902 33.7959H27.3396V28.4263C27.3396 27.9904 27.6155 27.6054 28.0261 27.468C28.6902 27.2461 28.6902 26.798 28.6902 26.6508V20.9657H23.288V26.5929C23.288 26.7533 23.288 27.2414 23.9581 27.4691C24.3652 27.6075 24.6385 27.9914 24.6385 28.4243V33.7959H23.288V28.6558C22.4374 28.2773 21.9374 27.5221 21.9374 26.5929V20.8962C21.9374 20.1898 22.5122 19.6151 23.2185 19.6151H28.7596C29.466 19.6151 30.0407 20.1898 30.0407 20.8962V26.6508C30.0407 27.5521 29.5409 28.2872 28.6902 28.6584V33.7959L28.6902 33.7959Z" fill="black"/>
<path d="M26.3482 12.0941C26.3482 11.6361 26.6037 11.3143 26.9617 11.3143C27.3196 11.3143 27.5649 11.6361 27.5649 12.0941C27.5649 12.5398 27.3298 12.874 26.9514 12.874C26.5935 12.874 26.3482 12.5398 26.3482 12.0941Z" fill="black"/>
<path d="M22.7591 12.1022C22.7591 11.6443 23.0595 11.3224 23.48 11.3224C23.9005 11.3224 24.1888 11.6443 24.1888 12.1022C24.1888 12.5479 23.9125 12.8821 23.468 12.8821C23.0475 12.8821 22.7591 12.5479 22.7591 12.1022Z" fill="black"/>
</svg>
