<svg width="40" height="40" viewBox="0 0 40 40" fill="none" xmlns="http://www.w3.org/2000/svg">
<path d="M30.8044 17.9742H29.4538V13.6352C29.4538 12.1802 28.2701 10.9964 26.815 10.9964H13.185C11.73 10.9964 10.5462 12.1802 10.5462 13.6352V17.9742H9.19562V13.6352C9.19562 11.4354 10.9852 9.64581 13.185 9.64581H26.815C29.0147 9.64581 30.8044 11.4354 30.8044 13.6352V17.9742Z" fill="black"/>
<path d="M8.04201 24.952H6.69147V30.3542H8.04201V24.952Z" fill="black"/>
<path d="M33.3085 27.6531H6.69147V20.6777C6.69147 18.9387 8.10619 17.524 9.84516 17.524H30.1549C31.8938 17.524 33.3085 18.9387 33.3085 20.6777V27.6531H33.3085ZM8.04201 26.3025H31.958V20.6777C31.958 19.6835 31.1491 18.8745 30.1549 18.8745H9.84516C8.85094 18.8745 8.04202 19.6835 8.04202 20.6777V26.3025H8.04201Z" fill="black"/>
<path d="M33.3085 24.952H31.9579V30.3542H33.3085V24.952Z" fill="black"/>
<path d="M14.15 16.3986H17.0527C17.6803 16.3986 18.1899 16.9082 18.1899 17.5358V17.7492H13.0128V17.5358C13.0128 16.9082 13.5224 16.3986 14.15 16.3986H14.15Z" fill="black"/>
<path d="M18.8652 18.4244H12.3375V17.3828C12.3375 16.4677 13.0819 15.7233 13.997 15.7233H17.2057C18.1208 15.7233 18.8652 16.4677 18.8652 17.3828V18.4244Z" fill="black"/>
<path d="M22.9286 16.3986H25.8313C26.4589 16.3986 26.9685 16.9082 26.9685 17.5358V17.7492H21.7914V17.5358C21.7914 16.9082 22.3009 16.3986 22.9286 16.3986Z" fill="black"/>
<path d="M27.6437 18.4244H21.1161V17.3828C21.1161 16.4677 21.8605 15.7233 22.7756 15.7233H25.9842C26.8993 15.7233 27.6437 16.4677 27.6437 17.3828V18.4244Z" fill="black"/>
</svg>
