<svg width="40" height="40" viewBox="0 0 40 40" fill="none" xmlns="http://www.w3.org/2000/svg">
<path d="M20 35.0817C11.6839 35.0817 4.91821 28.3161 4.91821 20C4.91821 11.684 11.6839 4.91827 20 4.91827C28.316 4.91827 35.0818 11.684 35.0818 20C35.0818 28.3161 28.3161 35.0817 20 35.0817V35.0817ZM20 6.2688C12.4285 6.2688 6.26877 12.4286 6.26877 20C6.26877 27.5714 12.4286 33.7311 20 33.7311C27.5714 33.7311 33.7312 27.5713 33.7312 20C33.7312 12.4287 27.5714 6.26882 20 6.26882V6.2688Z" fill="black"/>
<path d="M21.9167 10.6858C20.8711 10.4718 19.7674 10.4359 18.7086 10.5795L18.527 9.2413C19.7357 9.07699 20.9937 9.11821 22.1875 9.36275L21.9167 10.6858H21.9167Z" fill="black"/>
<path d="M15.2023 29.7429C11.4642 27.899 9.14209 24.1658 9.14209 20C9.14209 16.4694 10.8684 13.1472 13.7599 11.1133L14.5369 12.2179C12.0045 13.9992 10.4926 16.9085 10.4926 20C10.4926 23.6478 12.5263 26.9169 15.7998 28.5317L15.2023 29.7429V29.7429Z" fill="black"/>
<path d="M20 30.8578C19.0662 30.8578 18.1387 30.739 17.2433 30.5047L17.5853 29.1981C19.3229 29.6529 21.2057 29.6024 22.9155 29.0521L23.3292 30.3378C22.2568 30.6829 21.1367 30.8579 20 30.8579L20 30.8578Z" fill="black"/>
<path d="M25.679 29.2561L24.9717 28.1055C27.8117 26.3596 29.5072 23.3294 29.5072 20.0001C29.5072 17.3943 28.4738 14.9631 26.5973 13.1544L27.5346 12.1819C29.6776 14.2476 30.8578 17.0241 30.8578 20.0001C30.8578 23.8022 28.9218 27.2624 25.679 29.2561Z" fill="black"/>
<path d="M24.156 32.5808C23.9776 32.5808 23.722 32.527 23.4862 32.2812C22.4246 31.1746 22.614 26.4943 22.9472 20.9489C23.0274 19.614 23.1101 18.2383 23.0829 17.7783C21.8403 17.0455 20.6742 16.1188 20.6742 14.0303C20.6742 11.4528 21.7834 7.63885 24.1641 7.63885C26.3411 7.63885 27.5158 10.7896 27.5158 13.754C27.5158 15.9725 26.3976 16.9784 25.2482 17.6417C25.2259 18.099 25.3073 19.4257 25.3863 20.7134C25.7315 26.3407 25.9296 31.0934 24.8545 32.258C24.6139 32.5186 24.3508 32.5773 24.1724 32.5806C24.1671 32.5807 24.1616 32.5808 24.156 32.5808V32.5808ZM24.1641 8.53922C22.682 8.53922 21.5745 11.4383 21.5745 14.0303C21.5745 15.7374 22.4947 16.4023 23.6976 17.0942C24.0508 17.2973 24.0577 17.48 23.846 21.003C23.7204 23.0921 23.5642 25.6921 23.5879 27.8662C23.6265 31.3889 24.143 31.6721 24.165 31.6824C24.1758 31.6722 24.713 31.4214 24.7556 27.8022C24.7819 25.5664 24.6188 22.9062 24.4876 20.7685C24.2743 17.291 24.2799 17.1482 24.6383 16.9517C25.8251 16.3009 26.6155 15.5081 26.6155 13.754C26.6155 11.2461 25.6783 8.53922 24.1641 8.53922H24.1641Z" fill="black"/>
<path d="M16.3899 32.4906C16.1285 32.4906 15.8871 32.386 15.6888 32.186C14.5862 31.0737 14.7883 26.6085 15.1409 21.3235C15.2259 20.0478 15.3138 18.732 15.2819 18.3343C14.906 17.9926 13.7002 16.7599 13.7002 15.0071C13.7002 14.2939 13.9335 8.51534 14.0265 8.08319L14.9067 8.27246C14.8476 8.62197 14.6006 14.0401 14.6006 15.0071C14.6006 16.4793 15.7444 17.5427 15.9314 17.7067C16.2546 17.8982 16.2516 18.1991 16.0393 21.3834C15.8389 24.3873 15.4219 30.6378 16.3282 31.5521C16.3676 31.5919 16.3843 31.5905 16.3953 31.5902C16.4042 31.5825 16.8967 31.2969 16.9498 27.9643C16.9827 25.9035 16.8461 23.4365 16.7362 21.4543C16.5565 18.2114 16.5545 17.872 16.8699 17.6853C17.0973 17.4773 17.6186 16.9515 17.8187 16.5329C18.1312 15.8783 18.148 15.1964 18.1579 14.7891L18.1593 14.7339C18.2344 11.8349 17.7781 8.15991 17.7735 8.12309L18.6668 8.01099C18.6861 8.16387 19.1363 11.7908 19.0594 14.7573L19.058 14.8111C19.0471 15.259 19.0267 16.0927 18.6311 16.921C18.3557 17.4977 17.76 18.0867 17.5227 18.308C17.4857 18.7082 17.5616 20.0773 17.6352 21.4045C18.0475 28.8442 17.9748 32.4006 16.4473 32.489C16.4281 32.4901 16.4089 32.4906 16.3899 32.4906L16.3899 32.4906Z" fill="black"/>
<path d="M16.8696 8.29211H15.9692V15.0449H16.8696V8.29211Z" fill="black"/>
</svg>
