<svg width="40" height="40" viewBox="0 0 40 40" fill="none" xmlns="http://www.w3.org/2000/svg">
<path d="M20 34.2933C12.1186 34.2933 5.70673 27.8814 5.70673 20C5.70673 12.1186 12.1186 5.70673 20 5.70673C27.8814 5.70673 34.2933 12.1186 34.2933 20C34.2933 27.8814 27.8814 34.2933 20 34.2933ZM20 7.05727C12.8634 7.05727 7.05727 12.8634 7.05727 20C7.05727 27.1367 12.8634 32.9428 20 32.9428C27.1367 32.9428 32.9428 27.1367 32.9428 20C32.9428 12.8634 27.1367 7.05727 20 7.05727Z" fill="black"/>
<path d="M23.9392 27.2535C23.1063 28.1015 21.9844 28.6001 20.5741 28.7504V30.1234H19.246V28.7504C18.3604 28.6902 17.5089 28.5066 16.6912 28.1989C15.8732 27.8914 15.1416 27.5124 14.4966 27.0622L15.4645 25.329C15.9745 25.7042 16.571 26.0306 17.2539 26.308C17.9366 26.5859 18.6006 26.7547 19.246 26.8145V20.9171C18.0306 20.437 17.0661 19.8817 16.3536 19.2515C15.6407 18.6213 15.2844 17.7286 15.2844 16.5729C15.2844 15.3575 15.6896 14.3635 16.4999 13.5904C17.3102 12.8177 18.3756 12.3715 19.6962 12.2511V10.8106H21.0242V12.2737C22.4047 12.3939 23.7253 12.8138 24.9858 13.5341L24.153 15.2223C23.0873 14.6523 22.0445 14.3147 21.0242 14.2094V19.319H21.0467C21.887 19.6193 22.596 19.9457 23.1739 20.2981C23.7514 20.6509 24.2318 21.1386 24.6145 21.7611C24.9971 22.3841 25.1884 23.1759 25.1884 24.136C25.1884 25.3666 24.772 26.4058 23.9392 27.2535L23.9392 27.2535ZM18.1094 17.7209C18.492 18.0962 19.0209 18.4411 19.6962 18.7563V14.2094C19.021 14.3147 18.492 14.5582 18.1094 14.9409C17.7267 15.3236 17.5353 15.8077 17.5353 16.3928C17.5353 16.9032 17.7267 17.346 18.1094 17.721V17.7209ZM22.251 25.8917C22.6934 25.4567 22.915 24.8788 22.915 24.1585C22.915 23.5283 22.7086 22.9992 22.296 22.5716C21.8831 22.1439 21.3091 21.7726 20.574 21.4574V26.747C21.2493 26.612 21.8082 26.3272 22.251 25.8917L22.251 25.8917Z" fill="black"/>
</svg>
