<svg width="54" height="53" viewBox="0 0 54 53" fill="none" xmlns="http://www.w3.org/2000/svg">
<path d="M20.4029 34.9254H16.2275V36.4167H20.4029V34.9254Z" fill="black"/>
<path d="M21.2976 34.0307H15.3327V37.3114H21.2976V34.0307Z" fill="black"/>
<path d="M37.9994 34.9254H33.824V36.4167H37.9994V34.9254Z" fill="black"/>
<path d="M38.8941 34.0307H32.9292V37.3114H38.8941V34.0307Z" fill="black"/>
<path d="M10.7099 22.9956H8.7713V25.2325H10.7099V22.9956Z" fill="black"/>
<path d="M11.6047 26.1272H7.87659V22.1009H11.6047V26.1272ZM9.66606 24.3377H9.81518V23.8904H9.66606V24.3377Z" fill="black"/>
<path d="M45.2287 22.9956H43.2901V25.2325H45.2287V22.9956Z" fill="black"/>
<path d="M46.1234 26.1272H42.3953V22.1009H46.1234V26.1272ZM44.1848 24.3377H44.3339V23.8904H44.1848V24.3377Z" fill="black"/>
<path d="M12.0521 42.6798H16.2275V42.9154C16.2275 43.6084 15.6649 44.1711 14.9719 44.1711H13.3077C12.6147 44.1711 12.0521 43.6084 12.0521 42.9154V42.6798H12.0521Z" fill="black"/>
<path d="M15.923 45.0658H12.3567C11.6954 45.0658 11.1573 44.5277 11.1573 43.8664V41.7851H17.1222V43.8664C17.1222 44.5277 16.5842 45.0658 15.923 45.0658Z" fill="black"/>
<path d="M43.0696 42.829H11.1573V14.1594C11.1573 10.7268 13.9498 7.9342 17.3824 7.9342H36.8446C40.277 7.9342 43.0696 10.7268 43.0696 14.1594V42.829ZM12.9468 41.0395H41.2801V14.1594C41.2801 11.7135 39.2904 9.72367 36.8446 9.72367H17.3824C14.9366 9.72367 12.9468 11.7135 12.9468 14.1594V41.0395H12.9468Z" fill="black"/>
<path d="M42.1748 14.4956H12.052V16.2851H42.1748V14.4956Z" fill="black"/>
<path d="M42.1748 28.8114H12.6485V30.6009H42.1748V28.8114Z" fill="black"/>
<path d="M27.859 15.9868H26.0696V30.3026H27.859V15.9868Z" fill="black"/>
<path d="M37.9994 42.6798H42.1748V42.9154C42.1748 43.6084 41.6122 44.1711 40.9192 44.1711H39.255C38.562 44.1711 37.9994 43.6084 37.9994 42.9154V42.6798H37.9994Z" fill="black"/>
<path d="M41.8703 45.0658H38.3041C37.6428 45.0658 37.1047 44.5277 37.1047 43.8664V41.7851H43.0696V43.8664C43.0696 44.5277 42.5316 45.0658 41.8703 45.0658Z" fill="black"/>
</svg>
