<svg width="37" height="38" viewBox="0 0 37 38" fill="none" xmlns="http://www.w3.org/2000/svg">
<path d="M26.4329 31.2194H10.5673C7.99583 31.2194 5.90387 29.1274 5.90387 26.5562V13.5432C5.90387 10.9719 7.99583 8.87997 10.5673 8.87997H26.4329C29.0042 8.87997 31.0961 10.9719 31.0961 13.5432V26.5562C31.0961 29.1274 29.0042 31.2194 26.4329 31.2194V31.2194ZM10.5673 10.213C8.7309 10.213 7.2369 11.707 7.2369 13.5432V26.5562C7.2369 28.3923 8.7309 29.8864 10.5673 29.8864H26.4329C28.2691 29.8864 29.7631 28.3924 29.7631 26.5562V13.5432C29.7631 11.707 28.2691 10.213 26.4329 10.213H10.5673Z" fill="black"/>
<path d="M30.4296 16.9039H7.32392C6.95574 16.9039 6.65741 16.6056 6.65741 16.2374C6.65741 15.8692 6.95574 15.5709 7.32392 15.5709H30.4296C30.7978 15.5709 31.0961 15.8692 31.0961 16.2374C31.0961 16.6056 30.7978 16.9039 30.4296 16.9039Z" fill="black"/>
<path d="M13.6026 12.132C13.2344 12.132 12.9361 11.8337 12.9361 11.4655V7.44715C12.9361 7.07897 13.2344 6.78064 13.6026 6.78064C13.9708 6.78064 14.2691 7.07897 14.2691 7.44715V11.4655C14.2691 11.8337 13.9708 12.132 13.6026 12.132Z" fill="black"/>
<path d="M23.1464 12.132C22.7782 12.132 22.4799 11.8337 22.4799 11.4655V7.44715C22.4799 7.07897 22.7782 6.78064 23.1464 6.78064C23.5145 6.78064 23.8129 7.07897 23.8129 7.44715V11.4655C23.8129 11.8337 23.5145 12.132 23.1464 12.132Z" fill="black"/>
</svg>





