<svg width="56" height="56" viewBox="0 0 56 56" fill="none" xmlns="http://www.w3.org/2000/svg">
<path d="M9.08684 20.5324L7.57449 23.1518L11.16 25.2219L12.6723 22.6026L9.08684 20.5324Z" fill="black"/>
<path d="M46.9129 20.5323L43.3273 22.6025L44.8397 25.222L48.4253 23.1518L46.9129 20.5323Z" fill="black"/>
<path d="M16.5862 32.4906C15.5436 32.4906 14.6955 31.6424 14.6955 30.5998C14.6955 29.5572 15.5436 28.709 16.5862 28.709C17.6289 28.709 18.477 29.5572 18.477 30.5998C18.477 31.6424 17.6289 32.4906 16.5862 32.4906Z" fill="black"/>
<path d="M39.2754 32.4906C38.2328 32.4906 37.3847 31.6424 37.3847 30.5998C37.3847 29.5572 38.2328 28.709 39.2754 28.709C40.3181 28.709 41.1662 29.5572 41.1662 30.5998C41.1662 31.6424 40.3181 32.4906 39.2754 32.4906Z" fill="black"/>
<path d="M41.1662 41.6293H44.6326V42.3758C44.6326 43.1812 43.9787 43.8352 43.1732 43.8352H42.6256C41.8201 43.8352 41.1662 43.1812 41.1662 42.3758V41.6293Z" fill="black"/>
<path d="M43.8783 44.7805H41.9205C40.9832 44.7805 40.2208 44.0181 40.2208 43.0809V40.6839H45.578V43.0809C45.578 44.0181 44.8155 44.7805 43.8783 44.7805H43.8783ZM42.1116 42.8898H43.6872V42.5746H42.1116V42.8898Z" fill="black"/>
<path d="M45.5779 41.4717H10.2837V27.1146L15.7261 13.0342C16.1457 11.9488 17.2094 11.2195 18.3731 11.2195H37.6487C38.8252 11.2195 39.893 11.9596 40.306 13.061L45.578 27.1195V41.4717H45.5779ZM12.1744 39.5809H43.6872V27.4624L38.5356 13.7248C38.3977 13.3572 38.0414 13.1102 37.6487 13.1102H18.3731C17.9847 13.1102 17.6298 13.3536 17.4897 13.7159L12.1744 27.4673V39.5809V39.5809Z" fill="black"/>
<path d="M43.3721 23.1943H12.4896V25.0851H43.3721V23.1943Z" fill="black"/>
<path d="M34.0758 35.957H21.7858V31.5452H23.6766V34.0662H32.185V31.5452H34.0758V35.957Z" fill="black"/>
<path d="M11.2291 41.6293H14.6955V42.3758C14.6955 43.1812 14.0415 43.8352 13.2361 43.8352H12.6885C11.883 43.8352 11.2291 43.1812 11.2291 42.3758V41.6293Z" fill="black"/>
<path d="M13.9412 44.7805H11.9833C11.0461 44.7805 10.2837 44.0181 10.2837 43.0809V40.6839H15.6408V43.0809C15.6408 44.0181 14.8784 44.7805 13.9412 44.7805H13.9412ZM12.1744 42.8898H13.7501V42.5746H12.1744V42.8898Z" fill="black"/>
</svg>
