<svg width="56" height="56" viewBox="0 0 56 56" fill="none" xmlns="http://www.w3.org/2000/svg">
<path d="M28 48.0106C16.9661 48.0106 7.9894 39.034 7.9894 28C7.9894 16.9661 16.9661 7.98941 28 7.98941C39.0339 7.98941 48.0106 16.9661 48.0106 28C48.0106 39.034 39.0339 48.0106 28 48.0106ZM28 9.88017C18.0087 9.88017 9.88016 18.0087 9.88016 28C9.88016 37.9913 18.0087 46.1199 28 46.1199C37.9913 46.1199 46.1198 37.9913 46.1198 28C46.1198 18.0087 37.9913 9.88017 28 9.88017Z" fill="black"/>
<path d="M28.1576 31.0712V17.4432C28.1576 16.9211 27.7343 16.4978 27.2122 16.4978C26.6901 16.4978 26.2668 16.9211 26.2668 17.4432V31.0712H28.1576Z" fill="black"/>
<path d="M27.2788 29.4738L26.2671 31.0712L35.0323 36.6225C35.4734 36.9019 36.0575 36.7707 36.3368 36.3296C36.6162 35.8885 36.4851 35.3045 36.044 35.0251L27.2788 29.4738Z" fill="black"/>
</svg>
