<svg width="57" height="56" viewBox="0 0 57 56" fill="none" xmlns="http://www.w3.org/2000/svg">
<path d="M28.5 35.0904C24.1559 35.0904 20.6218 31.9097 20.6218 28C20.6218 24.0903 24.1559 20.9096 28.5 20.9096C32.8441 20.9096 36.3782 24.0903 36.3782 28C36.3782 31.9097 32.8441 35.0904 28.5 35.0904V35.0904ZM28.5 22.8004C25.1986 22.8004 22.5126 25.1329 22.5126 28C22.5126 30.8671 25.1986 33.1996 28.5 33.1996C31.8015 33.1996 34.4874 30.8671 34.4874 28C34.4874 25.1329 31.8015 22.8004 28.5 22.8004Z" fill="black"/>
<path d="M28.5 40.6051C15.1836 40.6051 8.56805 28.9545 8.29293 28.4586L8.03857 28L8.29293 27.5415C8.56805 27.0455 15.1836 15.3949 28.5 15.3949C41.8165 15.3949 48.432 27.0455 48.7071 27.5415L48.9615 28L48.7071 28.4586C48.432 28.9545 41.8165 40.6051 28.5 40.6051ZM10.226 28C11.5679 30.1034 17.7224 38.7143 28.5 38.7143C39.2776 38.7143 45.4321 30.1034 46.774 28C45.4321 25.8966 39.2776 17.2857 28.5 17.2857C17.7224 17.2857 11.5679 25.8966 10.226 28Z" fill="black"/>
</svg>

