<svg width="14" height="14" viewBox="0 0 14 14" fill="none" xmlns="http://www.w3.org/2000/svg">
<path fill-rule="evenodd" clip-rule="evenodd" d="M7 0.176453C3.23515 0.176453 0.176575 3.23531 0.176575 6.99988C0.176575 10.7645 3.23543 13.8233 7 13.8233C10.7646 13.8233 13.8234 10.7645 13.8234 6.99988C13.8234 3.23531 10.7646 0.176453 7 0.176453ZM7 12.6942C3.84715 12.6942 1.306 10.153 1.306 7.00017C1.306 3.84734 3.84718 1.30617 7 1.30617C10.1528 1.30617 12.694 3.84734 12.694 7.00017C12.694 10.153 10.1528 12.6942 7 12.6942Z" fill="#14202B"/>
<path fill-rule="evenodd" clip-rule="evenodd" d="M7.04714 5.11774C6.71769 5.11774 6.43543 5.4001 6.43543 5.72945L6.43532 10.7649C6.43532 11.0943 6.71768 11.3766 7.04703 11.3766C7.37649 11.3766 7.65875 11.0942 7.65875 10.7649L7.65886 5.77659C7.65886 5.40014 7.37649 5.11777 7.04714 5.11777V5.11774Z" fill="#14202B"/>
<path fill-rule="evenodd" clip-rule="evenodd" d="M7.61172 3.2823C7.61172 3.62013 7.33784 3.89401 7 3.89401C6.66217 3.89401 6.38829 3.62013 6.38829 3.2823C6.38829 2.94447 6.66217 2.67047 7 2.67047C7.33784 2.67047 7.61172 2.94447 7.61172 3.2823Z" fill="#14202B"/>
</svg>
