<svg width="38" height="38" viewBox="0 0 38 38" fill="none" xmlns="http://www.w3.org/2000/svg">
<path d="M19 18.9471C15.486 18.9471 12.6274 16.0882 12.6274 12.5742C12.6274 9.06025 15.486 6.2016 19 6.2016C22.514 6.2016 25.3729 9.06024 25.3729 12.5742C25.3729 16.0882 22.514 18.9471 19 18.9471ZM19 7.57064C16.241 7.57064 13.9964 9.81518 13.9964 12.5742C13.9964 15.3333 16.241 17.578 19 17.578C21.7591 17.578 24.0038 15.3333 24.0038 12.5742C24.0038 9.81518 21.7591 7.57064 19 7.57064Z" fill="black"/>
<path d="M19 31.7984C16.2038 31.7984 13.5976 31.7884 11.661 31.7699C10.6173 31.7601 9.80081 31.748 9.23461 31.7342C8.17953 31.7086 7.65009 31.6957 7.65009 31.0002C7.65009 25.3536 12.7417 20.7595 19 20.7595C25.2583 20.7595 30.3499 25.3536 30.3499 31.0002C30.3499 31.6957 29.8205 31.7086 28.7654 31.7342C28.1992 31.748 27.3828 31.7601 26.339 31.7699C24.4024 31.7884 21.7963 31.7984 19 31.7984ZM9.04476 30.3616C12.1314 30.4512 25.8687 30.4512 28.9553 30.3616C28.586 25.7667 24.2621 22.1286 19 22.1286C13.7379 22.1286 9.41398 25.7667 9.04476 30.3616Z" fill="black"/>
</svg>
