<svg width="40" height="40" viewBox="0 0 40 40" fill="none" xmlns="http://www.w3.org/2000/svg">
<path d="M32.8404 7.39492C33.021 7.39492 33.1678 7.5418 33.1678 7.72235V30.2134C33.1678 30.3939 33.021 30.5408 32.8404 30.5408H7.15962C6.97907 30.5408 6.83218 30.3939 6.83218 30.2134V7.72235C6.83218 7.5418 6.97907 7.39492 7.15962 7.39492H32.8404ZM32.8404 6.04437H7.15962C6.2329 6.04437 5.48163 6.79563 5.48163 7.72235V30.2134C5.48163 31.1401 6.23289 31.8913 7.15962 31.8913H32.8404C33.7671 31.8913 34.5184 31.1401 34.5184 30.2134V7.72235C34.5184 6.79563 33.7672 6.04437 32.8404 6.04437Z" fill="black"/>
<path d="M30.3655 31.5781L31.142 33.9557H8.85797L9.63448 31.5781" stroke="black" stroke-width="1.01506" stroke-miterlimit="10"/>
<path d="M18.68 20.2236V27.1075C18.68 27.1154 18.6736 27.1218 18.6657 27.1218H15.8002C15.7923 27.1218 15.7859 27.1154 15.7859 27.1075V11.585C15.7859 11.5771 15.7923 11.5707 15.8002 11.5707H18.6657C18.6736 11.5707 18.68 11.5771 18.68 11.585" stroke="black" stroke-width="0.84589" stroke-miterlimit="10"/>
<path d="M21.2203 18.2338V11.6575C21.2203 11.6096 21.2591 11.5707 21.307 11.5707H24.0276C24.0755 11.5707 24.1143 11.6096 24.1143 11.6575V27.035C24.1143 27.0829 24.0755 27.1218 24.0276 27.1218H21.307C21.2591 27.1218 21.2203 27.0829 21.2203 27.035" stroke="black" stroke-width="0.84589" stroke-miterlimit="10"/>
<path d="M18.3339 12.123L23.4937 26.5277H21.5281L16.5164 12.129L18.3339 12.123M18.701 10.9964C18.6981 10.9964 18.6952 10.9964 18.6924 10.9964L15.7665 11.0061C15.354 11.0083 15.078 11.4754 15.2425 11.8929L20.4931 26.9778C20.5843 27.2093 20.9397 27.6531 21.1684 27.6531H24.0946C24.5077 27.6531 24.9337 27.1713 24.7698 26.7527L19.3677 11.6716C19.1831 11.2002 19.1609 10.9963 18.701 10.9963L18.701 10.9964Z" fill="black"/>
</svg>
