<svg width="56" height="56" viewBox="0 0 56 56" fill="none" xmlns="http://www.w3.org/2000/svg">
<path d="M8.29303 22.2117C8.00068 22.2117 7.71263 22.0768 7.52751 21.8221C7.22054 21.3999 7.3141 20.8086 7.73647 20.5016L8.10098 20.2366C20.6359 11.1267 35.6485 11.1108 48.2602 20.1935C48.6838 20.4988 48.78 21.0895 48.4749 21.5133C48.1696 21.9372 47.5789 22.0328 47.1551 21.7279C35.2388 13.1453 21.0545 13.1598 9.21255 21.7661L8.84804 22.0311C8.68032 22.1531 8.48567 22.2117 8.29303 22.2117Z" fill="black"/>
<path d="M28.1118 41.625C28.0306 41.6753 27.9239 41.675 27.843 41.6241C26.3087 40.6603 25.5756 39.0953 25.637 38.9696C25.9768 38.2744 30.0734 38.277 30.3639 38.9726C30.4176 39.1012 29.6634 40.6648 28.1118 41.625V41.625Z" fill="black"/>
<path d="M27.9782 42.6072C27.7556 42.6072 27.5332 42.5461 27.3395 42.4242C26.0028 41.5845 24.3042 39.5442 24.7874 38.5548C25.1556 37.8016 26.354 37.4494 28.3487 37.5091C30.5529 37.5745 31.0524 38.1678 31.2363 38.6084C31.6517 39.6036 29.9293 41.6119 28.6095 42.4287C28.4175 42.5476 28.1978 42.6072 27.9782 42.6072ZM26.927 39.4567C27.1624 39.7933 27.5111 40.2052 27.9813 40.5687C28.46 40.2049 28.8178 39.7912 29.0604 39.452C28.4362 39.3763 27.5472 39.3783 26.927 39.4567H26.927Z" fill="black"/>
<path d="M13.8247 28.5861C13.5102 28.5861 13.2028 28.4293 13.0232 28.1434C12.7455 27.7014 12.8789 27.1177 13.321 26.84L13.5833 26.6752C22.6705 20.9681 33.5459 20.9469 42.6751 26.6178C43.1185 26.8934 43.2548 27.4763 42.9793 27.9197C42.7038 28.3633 42.1211 28.4995 41.6774 28.2239C33.1761 22.9428 23.0497 22.9627 14.589 28.2764L14.3267 28.4412C14.1705 28.5392 13.9965 28.5861 13.8247 28.5861V28.5861Z" fill="black"/>
<path d="M20.1256 35.4212C19.837 35.4212 19.5524 35.2898 19.3668 35.0407C19.0548 34.6222 19.1413 34.0298 19.5599 33.7179L19.7055 33.6094C24.9277 29.7229 31.1823 29.7171 36.4365 33.5929C36.8567 33.9028 36.9461 34.4948 36.6361 34.9149C36.3262 35.3349 35.7338 35.4243 35.3142 35.1144C30.7654 31.7593 25.3527 31.7636 20.8348 35.1258L20.6897 35.2338C20.5201 35.3603 20.3219 35.4212 20.1256 35.4212H20.1256Z" fill="black"/>
</svg>
