<svg width="40" height="40" viewBox="0 0 40 40" fill="none" xmlns="http://www.w3.org/2000/svg">
<path d="M5.92362 15.8655C5.71479 15.8655 5.50905 15.7691 5.37682 15.5872C5.15755 15.2856 5.22438 14.8632 5.52608 14.644L5.78644 14.4547C14.74 7.94762 25.4632 7.93629 34.4716 14.4239C34.7742 14.642 34.8429 15.0639 34.6249 15.3666C34.4069 15.6694 33.985 15.7377 33.6823 15.5199C25.1706 9.3895 15.0389 9.39984 6.58042 15.5472L6.32006 15.7365C6.20026 15.8236 6.06122 15.8655 5.92362 15.8655Z" fill="black"/>
<path d="M20.0798 29.7322C20.0218 29.7681 19.9456 29.7678 19.8878 29.7315C18.7919 29.0431 18.2682 27.9252 18.3121 27.8355C18.5548 27.3389 21.481 27.3407 21.6885 27.8376C21.7268 27.9294 21.1881 29.0463 20.0798 29.7322V29.7322Z" fill="black"/>
<path d="M19.9844 30.4337C19.8254 30.4337 19.6666 30.3901 19.5282 30.303C18.5734 29.7033 17.3601 28.2459 17.7053 27.5392C17.9683 27.0012 18.8242 26.7496 20.2491 26.7922C21.8235 26.839 22.1803 27.2628 22.3116 27.5774C22.6084 28.2883 21.378 29.7228 20.4354 30.3062C20.2982 30.3912 20.1413 30.4337 19.9844 30.4337ZM19.2335 28.1833C19.4017 28.4238 19.6507 28.718 19.9866 28.9776C20.3286 28.7178 20.5841 28.4223 20.7574 28.18C20.3115 28.126 19.6766 28.1274 19.2336 28.1833H19.2335Z" fill="black"/>
<path d="M9.87476 20.4187C9.6501 20.4187 9.43051 20.3067 9.30225 20.1025C9.10387 19.7867 9.19916 19.3698 9.51492 19.1715L9.70231 19.0537C16.1931 14.9773 23.9613 14.9621 30.4821 19.0128C30.7989 19.2096 30.8963 19.6259 30.6994 19.9427C30.5027 20.2595 30.0865 20.3568 29.7695 20.16C23.6972 16.3877 16.464 16.402 10.4207 20.1974L10.2333 20.3152C10.1217 20.3852 9.99741 20.4187 9.87476 20.4187V20.4187Z" fill="black"/>
<path d="M14.3754 25.3009C14.1693 25.3009 13.966 25.207 13.8334 25.0291C13.6105 24.7301 13.6723 24.307 13.9713 24.0842L14.0753 24.0067C17.8055 21.2307 22.273 21.2265 26.026 23.9949C26.3262 24.2163 26.3901 24.6391 26.1686 24.9392C25.9472 25.2392 25.5241 25.3031 25.2244 25.0817C21.9753 22.6852 18.1091 22.6883 14.8819 25.0898L14.7783 25.167C14.6572 25.2573 14.5156 25.3009 14.3754 25.3009H14.3754Z" fill="black"/>
</svg>
